<svg width="759" height="222" viewBox="0 0 759 222" fill="none" xmlns="http://www.w3.org/2000/svg">
<rect width="759" height="221" transform="translate(0 0.494019)" fill="white"/>
<path d="M124.394 148.514L123.8 151.485C134.94 145.228 145.523 144.818 155.753 146.866C142.997 146.525 134.366 148.286 122.648 154.672L122.02 157.543C139.72 147.549 164.3 144.955 180.031 159.999C161.773 139.698 142.724 139.698 124.394 148.514Z" fill="#243E9B"/>
<path d="M237.597 148.514L238.194 151.485C227.015 145.228 216.396 144.818 206.131 146.866C218.931 146.525 227.592 148.286 239.35 154.672L239.98 157.543C222.219 147.549 197.555 144.955 181.77 159.999C200.09 139.698 219.205 139.698 237.597 148.514Z" fill="#243E9B"/>
<circle cx="181.053" cy="98.5297" r="11.9841" stroke="#1045A1" stroke-width="5.9087"/>
<path d="M198.818 72.215L202.886 68.0453C191.859 58.7055 170.797 58.9577 159.125 67.8766L163.733 72.1257C165.719 70.0816 167.887 68.3807 171.454 68.116C172.041 68.2188 173.843 67.8048 174.573 70.3371C175.87 74.0119 173.779 78.9791 172.642 80.4205C168.207 86.685 158.983 91.6123 154.644 91.4981C152.59 91.5552 151.232 90.0098 151.232 87.921C150.853 84.9303 155.649 78.3204 161.04 73.4424L156.701 69.6529C138.735 83.5022 138.273 111.784 155.882 127.248L160.496 123.763L157.914 120.09C157.915 115.22 156.911 113.301 152.877 111.694C148.467 106.208 148.252 100.346 153.231 98.1731C155.843 97.5486 161.037 97.6628 163.595 98.2692C164.351 88.7051 170.969 81.2237 181.219 81.2162C190.434 81.395 197.679 88.711 198.71 97.9482C200.651 97.7198 205.924 97.4385 208.706 97.9884C214.351 99.8919 213.284 106.772 209.66 110.983C205.182 113.94 204.114 116.095 204.34 120.673L201.337 123.904L206.495 127.322C222.942 113.226 224.316 83.4848 205.001 69.6121L200.886 73.7942C205.261 77.4094 207.463 79.8422 210.389 85.8049C211.794 89.0605 209.806 92.3847 206.311 91.3566C202.096 90.1572 196.475 87.724 191.847 83.1701C189.055 80.1471 187.591 75.7887 187.277 72.6139C186.962 70.1934 187.56 67.49 190.171 67.8336C193.617 68.4968 195.513 69.416 198.818 72.215Z" fill="#1045A1"/>
<circle cx="181.053" cy="98.4164" r="5.93539" fill="#243E9B"/>
<path fill-rule="evenodd" clip-rule="evenodd" d="M181.354 114.459C182.328 114.459 183.34 114.339 184.318 114.138L205.147 128.56C200.565 132.75 192.632 137.676 184.044 138.198L183.671 133.591L177.722 133.611L177.278 138.14C169.298 138.062 160.595 132.31 157.252 128.639L177.067 114.205C178.17 114.398 178.825 114.474 180.166 114.458L179.79 118.367H181.607L181.354 114.459ZM179.666 119.63H181.717L182.135 122.577L179.102 122.595L179.666 119.63ZM182.307 123.572L178.975 123.572L178.63 126.562L182.743 126.552L182.307 123.572ZM178.429 128.299L182.922 128.299L183.51 131.438L177.963 131.449L178.429 128.299Z" fill="#1045A1"/>
<path d="M140.685 109.569L142.129 113.612C139.075 119.108 136.167 127.893 132.023 138.586C155.714 134.891 171.115 143.511 180.096 160.096C164.664 140.716 147.905 136.2 125.238 145.66L137.942 113.034C138.593 111.249 139.187 110.485 140.685 109.569Z" fill="#1045A1"/>
<path d="M221.251 109.569L219.802 113.612C222.867 119.108 225.784 127.893 229.942 138.586C206.17 134.891 190.716 143.511 181.705 160.096C197.19 140.716 214.006 136.2 236.75 145.66L224.003 113.034C223.35 111.249 222.754 110.485 221.251 109.569Z" fill="#1045A1"/>
<path d="M251.951 93.0856C251.45 92.2984 250.985 91.2251 250.556 89.8655C250.126 88.5058 249.912 87.0747 249.912 85.572C249.912 82.7812 250.52 80.7775 251.736 79.561C253.025 78.3446 254.67 77.7363 256.674 77.7363H303.473C303.974 78.5234 304.439 79.5968 304.869 80.9564C305.298 82.316 305.513 83.7472 305.513 85.2499C305.513 88.0407 304.869 90.0444 303.581 91.2608C302.364 92.4773 300.754 93.0856 298.75 93.0856H286.836V142.676C286.049 142.89 284.796 143.105 283.079 143.32C281.433 143.534 279.787 143.642 278.142 143.642C276.496 143.642 275.029 143.498 273.741 143.212C272.524 142.998 271.487 142.568 270.628 141.924C269.769 141.28 269.125 140.386 268.696 139.241C268.266 138.096 268.052 136.593 268.052 134.733V93.0856H251.951ZM337.591 117.237C334.442 116.163 331.58 115.09 329.004 114.016C326.428 112.871 324.209 111.512 322.349 109.938C320.488 108.363 319.021 106.503 317.948 104.356C316.946 102.138 316.445 99.4543 316.445 96.3057C316.445 90.2233 318.771 85.3573 323.422 81.7078C328.145 78.0583 334.728 76.2336 343.172 76.2336C346.249 76.2336 349.112 76.4483 351.759 76.8776C354.407 77.307 356.661 77.9868 358.521 78.917C360.454 79.7757 361.956 80.9207 363.03 82.3518C364.103 83.7114 364.64 85.3215 364.64 87.182C364.64 89.0425 364.21 90.6526 363.352 92.0122C362.493 93.3003 361.455 94.4094 360.239 95.3397C358.665 94.3379 356.554 93.4792 353.906 92.7636C351.258 91.9764 348.36 91.5829 345.212 91.5829C341.991 91.5829 339.63 92.048 338.127 92.9783C336.625 93.837 335.873 94.9461 335.873 96.3057C335.873 97.3791 336.338 98.2736 337.269 98.9892C338.199 99.6332 339.594 100.241 341.455 100.814L347.144 102.639C353.87 104.785 359.022 107.54 362.6 110.904C366.25 114.195 368.075 118.704 368.075 124.428C368.075 130.511 365.677 135.448 360.883 139.241C356.089 142.962 349.04 144.822 339.737 144.822C336.446 144.822 333.369 144.536 330.506 143.964C327.716 143.463 325.247 142.711 323.1 141.71C321.025 140.636 319.379 139.348 318.163 137.845C317.018 136.271 316.445 134.482 316.445 132.478C316.445 130.403 317.053 128.65 318.27 127.219C319.486 125.716 320.81 124.571 322.241 123.784C324.245 125.358 326.678 126.718 329.54 127.863C332.474 129.008 335.659 129.58 339.093 129.58C342.6 129.58 345.069 129.044 346.5 127.97C347.931 126.897 348.646 125.645 348.646 124.213C348.646 122.782 348.074 121.709 346.929 120.993C345.784 120.206 344.174 119.455 342.099 118.739L337.591 117.237ZM402.399 142.676C401.612 142.89 400.36 143.105 398.642 143.32C396.996 143.534 395.351 143.642 393.705 143.642C392.059 143.642 390.592 143.498 389.304 143.212C388.087 142.998 387.05 142.568 386.191 141.924C385.332 141.28 384.688 140.386 384.259 139.241C383.83 138.096 383.615 136.593 383.615 134.733V78.0583C384.402 77.9152 385.654 77.7363 387.372 77.5216C389.089 77.2354 390.735 77.0923 392.309 77.0923C393.955 77.0923 395.386 77.2354 396.603 77.5216C397.891 77.7363 398.964 78.1657 399.823 78.8097C400.682 79.4537 401.326 80.3482 401.755 81.4931C402.184 82.6381 402.399 84.1408 402.399 86.0013V142.676ZM480.615 140.851C479.613 141.853 478.146 142.604 476.214 143.105C474.353 143.677 472.099 143.964 469.452 143.964C466.804 143.964 464.299 143.57 461.938 142.783C459.576 141.996 457.644 140.099 456.142 137.094L445.515 115.412C444.442 113.194 443.476 111.118 442.617 109.186C441.758 107.183 440.828 104.893 439.826 102.317L439.182 102.424C439.469 106.288 439.612 110.224 439.612 114.231C439.683 118.238 439.719 122.174 439.719 126.038V142.676C438.932 142.89 437.715 143.105 436.07 143.32C434.495 143.534 432.921 143.642 431.347 143.642C429.772 143.642 428.377 143.534 427.161 143.32C425.944 143.105 424.942 142.676 424.155 142.032C423.368 141.388 422.76 140.529 422.33 139.455C421.901 138.311 421.686 136.844 421.686 135.055V81.3858C422.688 79.9546 424.227 78.8812 426.302 78.1657C428.377 77.4501 430.595 77.0923 432.957 77.0923C435.604 77.0923 438.109 77.5216 440.47 78.3803C442.903 79.1675 444.835 81.028 446.267 83.9619L457 105.644C458.074 107.862 459.04 109.973 459.899 111.977C460.757 113.909 461.687 116.163 462.689 118.739L463.226 118.632C462.94 114.768 462.761 110.904 462.689 107.039C462.618 103.175 462.582 99.3112 462.582 95.447V78.0583C463.369 77.8436 464.55 77.629 466.124 77.4143C467.77 77.1996 469.38 77.0923 470.954 77.0923C474.103 77.0923 476.5 77.6648 478.146 78.8097C479.792 79.8831 480.615 82.1729 480.615 85.6793V140.851ZM518.581 129.151C519.368 129.294 520.334 129.437 521.479 129.58C522.624 129.652 523.698 129.688 524.699 129.688C527.132 129.688 529.351 129.33 531.354 128.614C533.43 127.899 535.183 126.79 536.614 125.287C538.117 123.784 539.262 121.852 540.049 119.491C540.907 117.058 541.337 114.16 541.337 110.796C541.337 104.356 539.834 99.5258 536.829 96.3057C533.823 93.014 529.816 91.3682 524.807 91.3682C523.805 91.3682 522.767 91.404 521.694 91.4755C520.692 91.5471 519.655 91.6544 518.581 91.7975V129.151ZM524.592 144.822C523.376 144.822 521.98 144.787 520.406 144.715C518.832 144.643 517.186 144.5 515.468 144.286C513.823 144.071 512.141 143.785 510.423 143.427C508.778 143.141 507.239 142.711 505.808 142.139C501.872 140.636 499.904 138.024 499.904 134.303V84.1766C499.904 82.6738 500.298 81.5289 501.085 80.7418C501.944 79.8831 503.089 79.2033 504.52 78.7023C507.597 77.7005 510.853 77.0565 514.288 76.7703C517.722 76.4125 520.799 76.2336 523.519 76.2336C529.1 76.2336 534.145 76.9134 538.653 78.273C543.233 79.6326 547.133 81.7436 550.353 84.6059C553.645 87.3967 556.185 90.9388 557.974 95.2323C559.763 99.5258 560.657 104.606 560.657 110.474C560.657 116.199 559.799 121.208 558.081 125.502C556.364 129.723 553.895 133.301 550.675 136.235C547.527 139.098 543.734 141.244 539.297 142.676C534.861 144.107 529.959 144.822 524.592 144.822ZM589.873 79.9904C591.089 79.2748 592.914 78.595 595.347 77.951C597.851 77.307 600.356 76.9849 602.86 76.9849C606.438 76.9849 609.587 77.5216 612.306 78.595C615.097 79.5968 616.886 81.2069 617.673 83.4252C618.961 87.1462 620.357 91.4755 621.859 96.4131C623.362 101.351 624.865 106.467 626.367 111.762C627.87 116.986 629.337 122.174 630.768 127.326C632.199 132.407 633.452 136.915 634.525 140.851C633.666 141.853 632.378 142.64 630.661 143.212C628.944 143.856 626.904 144.178 624.543 144.178C622.825 144.178 621.358 144.035 620.142 143.749C618.997 143.463 618.031 143.033 617.244 142.461C616.528 141.888 615.92 141.137 615.419 140.207C614.99 139.277 614.596 138.203 614.238 136.987L612.306 129.58H592.878C592.306 131.727 591.733 133.945 591.161 136.235C590.588 138.525 590.016 140.743 589.443 142.89C588.441 143.248 587.368 143.534 586.223 143.749C585.15 144.035 583.826 144.178 582.252 144.178C578.602 144.178 575.883 143.57 574.094 142.354C572.377 141.066 571.518 139.312 571.518 137.094C571.518 136.092 571.661 135.09 571.947 134.089C572.233 133.087 572.555 131.906 572.913 130.546C573.414 128.614 574.094 126.217 574.953 123.355C575.883 120.492 576.885 117.415 577.958 114.124C579.032 110.761 580.176 107.326 581.393 103.819C582.609 100.313 583.754 97.0213 584.828 93.9443C585.901 90.7957 586.867 88.0049 587.726 85.572C588.656 83.139 589.372 81.2784 589.873 79.9904ZM602.753 93.837C601.751 96.8424 600.606 100.206 599.318 103.927C598.102 107.576 596.993 111.297 595.991 115.09H609.301C608.299 111.226 607.261 107.469 606.188 103.819C605.186 100.098 604.256 96.7708 603.397 93.837H602.753Z" fill="#1045A1"/>
</svg>
